<svg xmlns="http://www.w3.org/2000/svg" xmlns:xlink="http://www.w3.org/1999/xlink" width="500" zoomAndPan="magnify" viewBox="0 0 375 374.999991" height="500" preserveAspectRatio="xMidYMid meet" version="1.0"><defs><g/><clipPath id="8447dd9134"><path d="M 116.933594 107.828125 L 257.933594 107.828125 L 257.933594 208.328125 L 116.933594 208.328125 Z M 116.933594 107.828125 " clip-rule="nonzero"/></clipPath><clipPath id="08cf21d9a4"><path d="M 149.988281 86.898438 L 187.488281 86.898438 L 187.488281 136.398438 L 149.988281 136.398438 Z M 149.988281 86.898438 " clip-rule="nonzero"/></clipPath></defs><path fill="#f6a700" d="M 137.464844 181.726562 C 136.453125 183.90625 139.644531 183.449219 141.34375 183.449219 C 144.277344 183.449219 159.488281 183.601562 160.292969 183.167969 C 161.070312 182.757812 161.019531 181.738281 159.742188 181.558594 L 150.160156 181.726562 C 148.117188 181.726562 138.597656 181.445312 137.464844 181.726562 Z M 137.464844 181.726562 " fill-opacity="1" fill-rule="evenodd"/><g clip-path="url(#8447dd9134)"><path fill="#f6a700" d="M 132.894531 192.800781 L 138.265625 192.800781 C 139.492188 196.757812 144.378906 201.277344 149.433594 201.46875 C 154.421875 201.644531 159.347656 196.859375 160.265625 192.484375 L 164.734375 192.664062 C 163.125 201.1875 157.0625 205.269531 148.933594 205.257812 C 143.765625 205.257812 141.96875 204.199219 138.535156 201.59375 C 137.898438 201.109375 138.140625 201.390625 137.640625 200.777344 C 135.878906 198.609375 133.6875 196.515625 132.894531 192.800781 Z M 151.410156 192.890625 C 150.9375 193.695312 150.03125 194.714844 148.539062 194.5 C 146.816406 194.257812 146.726562 193.785156 145.769531 192.980469 Z M 140.335938 192.839844 L 143.449219 192.789062 C 144.164062 194.753906 146.152344 196.25 148.933594 196.273438 C 152.125 196.300781 153.632812 193.03125 154.816406 192.800781 L 158.25 192.664062 C 157.652344 195.0625 156.347656 195.980469 155.035156 197.308594 C 149.917969 202.476562 142.773438 198.058594 140.335938 192.839844 Z M 234.828125 189.738281 C 234.828125 187.546875 236.882812 185.082031 238.835938 185.195312 C 240.636719 185.300781 243.304688 187.097656 243.304688 189 C 243.304688 196.441406 234.828125 195.097656 234.828125 189.738281 Z M 119.800781 188.71875 C 119.355469 186.039062 121.996094 187.125 126.144531 187.289062 L 125.863281 189.164062 C 124.484375 189.101562 120.886719 189.179688 119.800781 188.71875 Z M 240.34375 198.699219 C 238.300781 198.710938 236.515625 198.097656 234.828125 197.433594 C 229.980469 195.535156 230.492188 190.136719 230.160156 189.304688 C 230.65625 188.871094 232.75 187.46875 233.453125 187.277344 C 232.609375 190.289062 233.070312 192.609375 234.984375 194.371094 C 238.746094 197.832031 246.070312 195.507812 245 188.273438 C 244.503906 184.929688 241.707031 184.367188 240.417969 183.679688 C 241.300781 183.472656 242.332031 183.21875 243.304688 183.117188 C 244.488281 182.988281 244.679688 183.039062 245.472656 183.613281 C 246.402344 184.292969 247.78125 186.015625 248.265625 187.417969 C 248.941406 189.371094 248.789062 191.285156 248.113281 193.070312 C 247.195312 195.46875 246.914062 195.609375 245.472656 197.066406 C 244.414062 198.125 242.050781 198.683594 240.34375 198.699219 Z M 247.410156 182.796875 L 253.371094 182.746094 C 254.378906 185.171875 255.082031 186.449219 255.082031 189.738281 C 255.082031 196.082031 253.269531 197.242188 250.910156 200.535156 C 249.605469 202.335938 247.324219 204.671875 244.746094 205.117188 C 239.335938 206.0625 234.996094 206.738281 230.746094 203.496094 C 229.214844 202.335938 225.308594 198.609375 224.570312 196.695312 C 224.148438 195.597656 223.550781 194.488281 223.664062 193.171875 L 228.410156 190.660156 C 228.820312 193.183594 229.46875 195.980469 231.625 197.714844 C 235.441406 200.765625 243.800781 201.925781 247.730469 197.601562 C 250.769531 194.269531 251.800781 187.851562 248.011719 183.539062 Z M 216.875 192.597656 C 216.847656 190.710938 220.140625 185.019531 221.339844 183.21875 C 223.152344 180.515625 225.335938 177.640625 227.492188 175.421875 C 228.871094 174.003906 230.566406 172.488281 232.457031 171.3125 C 234.917969 169.78125 236.324219 168.621094 238.988281 169.308594 C 244.820312 170.828125 244.070312 169.757812 248.941406 173.046875 C 252.375 175.382812 251.625 175.933594 253.5625 177.746094 C 254.507812 178.625 254.941406 179.226562 255.324219 180.488281 C 246.328125 181.96875 241.695312 179.75 233.988281 184.597656 L 230.132812 187.109375 C 228.589844 188.03125 227.914062 188.589844 226.332031 189.6875 C 223.894531 191.386719 220.332031 192.457031 216.875 192.597656 Z M 127.40625 191.195312 C 127.917969 188.847656 127.804688 187.761719 128.734375 184.226562 C 131.285156 174.386719 139.492188 166.566406 148.308594 162.164062 C 154.539062 159.0625 162.027344 157.1875 168.792969 159.816406 C 170.550781 160.503906 171.5625 161.4375 172.683594 162.558594 C 174.214844 164.078125 174.558594 164 175.160156 166.667969 C 175.566406 168.492188 176.5 169.960938 176.5 172.089844 C 176.5 176.390625 175.464844 179.785156 173.960938 183.652344 C 173.167969 185.683594 172.65625 186.179688 171.738281 187.789062 C 171.125 188.859375 169.734375 191.359375 168.535156 191.246094 C 162.84375 190.695312 161.351562 190.644531 156.042969 191.054688 Z M 190.34375 152.632812 C 188.40625 152.683594 185.445312 151.980469 183.25 151.953125 C 175.199219 151.867188 168.753906 152.335938 161.199219 152.492188 C 156.261719 152.578125 151.511719 153.472656 146.472656 153.359375 C 140.410156 153.21875 142.59375 146.085938 144.851562 144.246094 C 146.742188 142.714844 155.800781 143.992188 158.492188 144.425781 C 162.894531 145.140625 167.488281 145.894531 172.210938 146.070312 C 174.445312 146.160156 177.339844 146.453125 179.613281 146.136719 C 181.65625 145.855469 184.128906 145.078125 186.171875 145.203125 C 192.117188 145.574219 193.777344 148.417969 190.34375 152.632812 Z M 232.890625 152.402344 C 232.355469 151.980469 231.894531 151.152344 231.5 150.550781 C 230.03125 148.242188 228.308594 146.863281 227.109375 144.898438 C 230.324219 145.753906 233.054688 148.558594 232.890625 152.402344 Z M 190.28125 154.519531 C 191.429688 157.558594 190.421875 158.054688 188.367188 159.585938 C 183.773438 163.003906 180.316406 169.09375 180.300781 175.28125 C 180.289062 181.292969 183.722656 182.097656 189.375 182.25 C 194.441406 182.375 199.75 181.726562 204.804688 181.726562 C 209.539062 181.738281 214.234375 180.769531 216.605469 177.527344 C 219.390625 173.726562 221.40625 162.6875 220.753906 158.117188 C 219.886719 151.902344 219.785156 150.792969 218.242188 144.695312 C 217.742188 142.675781 217.257812 140.597656 216.722656 138.621094 L 219.542969 138.8125 C 221.851562 143.085938 221.980469 141.835938 224.75 145.050781 L 234.636719 157.953125 C 236.515625 160.734375 236.308594 163.667969 235.8125 167.332031 C 235.019531 167.90625 233.59375 168.46875 232.621094 169.027344 C 227.261719 172.195312 224.351562 176.097656 220.792969 180.730469 L 217.320312 186.5625 C 215.304688 186.589844 214.21875 186.933594 212.167969 186.917969 L 195.742188 187.085938 C 192.042969 187.085938 188.417969 186.726562 184.960938 186.742188 L 174.417969 187.074219 C 175.976562 183.5 177.355469 180.398438 177.953125 176.109375 C 178.234375 174.082031 178.425781 171.722656 177.992188 169.742188 C 177.800781 168.851562 176.730469 164.917969 176.410156 164.230469 C 175.453125 162.101562 172.378906 159.546875 170.871094 158.742188 C 166.839844 156.585938 160.292969 156.304688 155.6875 157.558594 C 145.746094 160.25 139.785156 164.601562 133.636719 171.25 C 130.699219 174.414062 127.28125 181.050781 126.605469 185.515625 C 123.3125 185.605469 123.910156 185.617188 124.511719 182.746094 C 124.894531 180.984375 125.429688 179.695312 126.144531 178.230469 C 129.5625 171.238281 132.804688 168.964844 138.523438 164.625 C 145.695312 159.191406 144.457031 162.710938 144.828125 155.15625 L 168.050781 153.855469 C 175.042969 153.804688 183.8125 153.027344 190.28125 154.519531 Z M 225.65625 127.199219 C 230.695312 127.339844 230.566406 135.109375 225.5 134.753906 C 225.527344 134.140625 225.742188 133.757812 225.691406 133.132812 L 225.476562 129.699219 Z M 220.742188 128.589844 C 222.144531 128.003906 222.363281 127.121094 223.933594 127.070312 C 223.675781 129.738281 223.828125 131.867188 223.703125 134.828125 C 220.039062 134.84375 220.460938 135.277344 219.261719 136.578125 C 218.917969 136.949219 218.929688 136.898438 218.292969 136.898438 C 216.453125 136.898438 216.261719 136.949219 216.097656 135.609375 C 215.636719 131.894531 215.546875 133.554688 209.804688 132.824219 C 207.726562 132.558594 205.9375 133.347656 205.402344 131.421875 C 207.496094 128.703125 212.613281 131.5625 214.820312 130.070312 L 214.742188 127.898438 C 218.675781 128.207031 217.550781 127.695312 220.742188 128.589844 Z M 214.082031 111.296875 C 215.039062 111.835938 215.726562 113.785156 215.699219 114.246094 C 215.675781 114.78125 214.578125 116.375 213.863281 116.773438 Z M 211.285156 114.269531 C 211.285156 118.828125 210.648438 120.625 213.390625 120.625 C 214.375 120.625 214.410156 120.5625 215.0625 120.179688 L 214.882812 125.296875 C 212.753906 125.324219 212.230469 125.515625 212.113281 127.707031 C 207.34375 127.441406 202.800781 126.699219 202.800781 132.148438 C 202.800781 134.089844 204.558594 135.300781 206.511719 135.351562 C 208.835938 135.402344 210.890625 135.621094 213.261719 135.710938 C 213.875 137.636719 213.046875 136.347656 214.082031 139.550781 C 215.929688 145.304688 217.4375 153.167969 218.175781 159.175781 C 218.597656 162.609375 216.644531 171.847656 214.984375 174.683594 C 212.128906 179.558594 206.601562 178.984375 200.402344 179.300781 C 198.90625 179.378906 197.25 179.199219 195.769531 179.3125 C 192.195312 179.570312 188.519531 180.066406 185.011719 178.90625 C 180.902344 177.527344 183.835938 170.152344 185.074219 167.804688 C 185.761719 166.488281 186.351562 166.003906 187.015625 165.074219 C 189.246094 161.921875 193.230469 160.621094 193.457031 157.390625 C 193.535156 156.332031 193.175781 153.804688 193.304688 153.5 C 194.722656 150.28125 194.671875 152.144531 194.671875 147.832031 C 194.671875 142.957031 187.996094 142.308594 184.21875 142.613281 C 180.890625 142.882812 180.058594 143.773438 175.644531 143.648438 C 171.445312 143.546875 166.214844 142.957031 162.15625 142.242188 C 156.195312 141.210938 152.738281 140.878906 146.484375 140.878906 C 139.773438 140.878906 137.847656 152.09375 142.132812 154.875 L 142.042969 158.679688 L 133.863281 164.613281 C 133.097656 165.316406 133.085938 165.226562 132.191406 165.902344 C 129.054688 168.261719 126.375 171.875 124.371094 175.472656 C 122.964844 178.011719 121.765625 181.203125 121.421875 184.277344 C 119.050781 184.429688 116.957031 184.597656 116.957031 188.273438 C 116.957031 192.609375 120.964844 191.4375 124.652344 191.769531 C 125.238281 195.164062 127.90625 193.351562 129.820312 193.835938 C 130.507812 194.015625 131.222656 196.71875 132.460938 198.851562 C 133.582031 200.804688 134.464844 201.59375 135.855469 203.050781 C 140.667969 208.078125 145.296875 207.859375 151.105469 207.859375 C 154.539062 207.859375 159.757812 205.652344 161.976562 203.75 C 164.71875 201.402344 166.113281 198.214844 167.324219 193.886719 C 170.527344 193.671875 170.730469 194.511719 172.328125 192.050781 C 172.710938 191.449219 173.15625 190.53125 173.933594 190.226562 C 178.234375 188.527344 186.058594 189.6875 190.101562 189.6875 L 204.316406 189.6875 C 206.933594 189.6875 212.0625 189.128906 214.730469 189.613281 C 214.132812 193.046875 211.820312 195.546875 217.550781 195.226562 L 221.007812 194.84375 C 222.746094 200.585938 223.371094 200.179688 226.648438 203.675781 C 230.683594 207.960938 234.011719 208.550781 239.359375 208.550781 C 242.867188 208.550781 246.800781 207.949219 249.65625 205.921875 C 250.71875 205.179688 251.113281 204.695312 251.992188 203.828125 C 254.546875 201.3125 257.671875 196.210938 257.671875 192.191406 C 257.671875 186.855469 257.964844 188.171875 256.753906 183.117188 C 257.160156 182.695312 257.558594 182.402344 258.003906 181.992188 C 258.042969 177.757812 257.710938 178.394531 255.03125 175.050781 C 253.730469 173.457031 252.695312 172.117188 250.933594 170.816406 C 246.621094 167.636719 243.800781 167.878906 238.796875 166.3125 C 239.054688 163.300781 239.117188 161.753906 238.082031 158.679688 C 237.507812 156.984375 236.679688 155.589844 235.699219 154.75 C 235.671875 146.75 233.617188 143.457031 225.898438 141.71875 C 224.660156 141.441406 222.695312 139.128906 222.261719 137.609375 C 228.117188 137.433594 232.046875 137.6875 232.046875 129.941406 C 232.046875 126.90625 228.066406 124.261719 225.882812 124.261719 C 219.171875 124.261719 222.707031 125.566406 218.609375 125.460938 C 218.316406 121.480469 218.75 117.972656 218.726562 114.269531 C 218.710938 112.828125 216.785156 107.828125 213.390625 107.828125 C 211.605469 107.828125 211.707031 108.71875 211.539062 110.226562 C 211.4375 111.066406 211.285156 113.542969 211.285156 114.269531 Z M 211.285156 114.269531 " fill-opacity="1" fill-rule="evenodd"/></g><path fill="#f6a700" d="M 161.953125 187.074219 C 162.320312 185.707031 162.003906 185.527344 160.457031 185.527344 C 156.335938 185.503906 136.519531 185.121094 135.5625 186.179688 C 133.75 188.183594 138.996094 187.265625 140.359375 187.265625 C 144.164062 187.265625 160.484375 187.492188 161.953125 187.074219 Z M 161.953125 187.074219 " fill-opacity="1" fill-rule="evenodd"/><path fill="#f6a700" d="M 141.546875 177.9375 C 141.0625 179.59375 142.09375 179.644531 143.792969 179.644531 L 155.800781 179.644531 C 157.867188 179.644531 157.917969 177.972656 155.8125 177.910156 Z M 141.546875 177.9375 " fill-opacity="1" fill-rule="evenodd"/><path fill="#f6a700" d="M 239.640625 188.296875 C 236.707031 187.671875 236.757812 190.558594 238.007812 191.105469 C 240.101562 192.011719 240.980469 189.996094 239.640625 188.296875 Z M 239.640625 188.296875 " fill-opacity="1" fill-rule="evenodd"/><g clip-path="url(#08cf21d9a4)"><path fill="#f6a700" d="M 186.015625 108.667969 C 184.140625 108.324219 182.660156 106.660156 182.660156 104.660156 L 182.660156 100.335938 C 182.660156 100.152344 182.601562 99.972656 182.472656 99.835938 L 179.308594 96.488281 C 179.167969 96.339844 178.984375 96.273438 178.78125 96.273438 L 174.746094 96.273438 C 174.542969 96.273438 174.351562 96.339844 174.214844 96.488281 L 170.753906 100.128906 C 170.589844 100.304688 170.519531 100.546875 170.570312 100.785156 C 170.621094 101.019531 170.785156 101.214844 171.011719 101.304688 L 177.695312 104.019531 C 178.46875 104.457031 179.011719 105.253906 179.214844 106.042969 L 169.96875 106.042969 C 167.914062 106.042969 165.984375 105.246094 164.53125 103.792969 L 161.136719 100.367188 C 161 100.230469 160.8125 100.125 160.617188 100.125 L 158.578125 100.125 L 158.578125 90.269531 C 158.675781 90.285156 158.691406 90.324219 158.757812 90.328125 C 158.769531 90.328125 158.777344 90.351562 158.792969 90.351562 L 162.347656 90.351562 C 162.371094 90.351562 162.398438 90.328125 162.421875 90.324219 L 171.9375 89.363281 L 179.96875 90.648438 L 183.546875 94.230469 C 185.144531 95.824219 186.015625 97.941406 186.015625 100.195312 Z M 184.632812 118.789062 C 184.632812 120.726562 183.402344 122.453125 181.570312 123.089844 C 181.277344 123.191406 181.078125 123.46875 181.078125 123.78125 L 181.078125 133.746094 L 180.148438 134.558594 L 179.007812 133.710938 L 179.007812 123.78125 C 179.007812 123.46875 178.847656 123.191406 178.550781 123.089844 C 176.71875 122.453125 175.507812 120.726562 175.507812 118.789062 C 175.507812 116.277344 177.558594 114.234375 180.070312 114.234375 C 180.738281 114.234375 181.375 114.378906 181.945312 114.640625 C 181.648438 114.992188 181.308594 115.308594 180.921875 115.578125 C 180.59375 115.8125 180.515625 116.269531 180.746094 116.601562 C 180.890625 116.800781 181.117188 116.910156 181.347656 116.910156 C 181.492188 116.910156 181.640625 116.867188 181.765625 116.777344 C 182.300781 116.398438 182.773438 115.953125 183.175781 115.453125 C 184.070312 116.285156 184.632812 117.472656 184.632812 118.789062 Z M 180.25 104.671875 C 179.835938 103.859375 179.191406 103.171875 178.363281 102.714844 C 178.339844 102.699219 178.3125 102.6875 178.289062 102.679688 L 172.554688 100.375 L 175.058594 97.753906 L 178.464844 97.753906 L 181.179688 100.628906 L 181.179688 104.660156 C 181.179688 104.824219 181.207031 104.984375 181.222656 105.144531 C 180.910156 104.960938 180.59375 104.804688 180.25 104.671875 Z M 187.496094 109.46875 L 187.496094 100.195312 C 187.496094 97.550781 186.460938 95.0625 184.59375 93.191406 L 180.839844 89.441406 C 180.730469 89.332031 180.589844 89.257812 180.4375 89.234375 L 172.074219 87.890625 C 172.011719 87.878906 171.949219 87.894531 171.886719 87.898438 L 162.3125 88.871094 L 158.792969 88.871094 C 158.710938 88.871094 158.675781 88.855469 158.578125 88.878906 L 158.578125 87.652344 C 158.578125 87.246094 158.234375 86.898438 157.832031 86.898438 L 150.816406 86.898438 C 150.410156 86.898438 150.082031 87.234375 150.082031 87.640625 C 150.082031 88.042969 150.410156 88.378906 150.816406 88.378906 L 157.097656 88.378906 L 157.097656 103.578125 L 150.71875 103.578125 C 150.316406 103.578125 149.988281 103.914062 149.988281 104.316406 C 149.988281 104.722656 150.316406 105.058594 150.71875 105.058594 L 157.832031 105.058594 C 158.234375 105.058594 158.578125 104.679688 158.578125 104.277344 L 158.578125 101.605469 L 160.316406 101.605469 L 163.496094 104.8125 C 165.226562 106.542969 167.523438 107.523438 169.96875 107.523438 L 171.917969 107.523438 C 171.265625 108.609375 170.890625 109.808594 170.890625 111.132812 C 170.890625 111.765625 170.976562 112.390625 171.144531 112.996094 C 171.253906 113.386719 171.660156 113.609375 172.046875 113.5 C 172.4375 113.390625 172.664062 112.988281 172.554688 112.597656 C 172.421875 112.121094 172.355469 111.632812 172.355469 111.132812 C 172.355469 109.746094 172.875 108.511719 173.734375 107.523438 L 180.03125 107.523438 C 180.4375 107.523438 180.761719 107.1875 180.761719 106.785156 C 180.761719 106.710938 180.757812 106.636719 180.757812 106.5625 C 182.25 107.535156 183.238281 109.214844 183.238281 111.128906 C 183.238281 111.921875 183.066406 112.691406 182.742188 113.394531 C 181.9375 112.996094 181.035156 112.773438 180.078125 112.773438 C 176.761719 112.773438 174.015625 115.472656 174.015625 118.789062 C 174.015625 121.171875 175.453125 123.3125 177.527344 124.277344 L 177.527344 134.070312 C 177.527344 134.296875 177.679688 134.511719 177.859375 134.652344 L 179.753906 136.09375 C 179.886719 136.195312 180.054688 136.242188 180.210938 136.242188 C 180.390625 136.242188 180.570312 136.179688 180.710938 136.054688 L 182.308594 134.613281 C 182.460938 134.472656 182.558594 134.277344 182.558594 134.070312 L 182.558594 124.277344 C 184.730469 123.3125 186.105469 121.171875 186.105469 118.789062 C 186.105469 116.957031 185.277344 115.3125 183.980469 114.207031 C 184.453125 113.261719 184.707031 112.210938 184.707031 111.125 C 184.707031 110.652344 184.65625 110.191406 184.566406 109.746094 C 185.238281 110.035156 185.980469 110.199219 186.761719 110.199219 C 187.164062 110.199219 187.496094 109.871094 187.496094 109.46875 " fill-opacity="1" fill-rule="nonzero"/></g><path fill="#f6a700" d="M 161.566406 129.757812 L 161.871094 132.101562 C 161.917969 132.453125 162.207031 132.71875 162.5625 132.738281 L 164.703125 132.839844 C 164.714844 132.839844 164.726562 132.839844 164.738281 132.839844 C 164.933594 132.839844 165.117188 132.761719 165.257812 132.625 L 172.183594 125.699219 C 173.488281 126.195312 174.953125 126.222656 176.277344 125.769531 C 176.660156 125.640625 176.863281 125.222656 176.730469 124.839844 C 176.601562 124.457031 176.183594 124.253906 175.804688 124.386719 C 174.671875 124.773438 173.410156 124.695312 172.335938 124.171875 C 172.054688 124.039062 171.71875 124.09375 171.496094 124.3125 L 164.449219 131.363281 L 163.242188 131.304688 L 163.0625 129.925781 L 170.085938 122.902344 C 170.304688 122.683594 170.363281 122.347656 170.226562 122.066406 C 169.378906 120.320312 169.730469 118.226562 171.101562 116.859375 C 171.8125 116.148438 172.71875 115.699219 173.714844 115.566406 C 174.113281 115.511719 174.394531 115.144531 174.34375 114.742188 C 174.289062 114.34375 173.917969 114.0625 173.519531 114.117188 C 172.203125 114.292969 171.007812 114.882812 170.066406 115.824219 C 168.382812 117.507812 167.863281 120.019531 168.699219 122.21875 L 161.773438 129.144531 C 161.613281 129.304688 161.535156 129.53125 161.566406 129.757812 " fill-opacity="1" fill-rule="nonzero"/><g fill="#f6a700" fill-opacity="1"><g transform="translate(116.955742, 257.844739)"><g><path d="M 25.972656 -19.375 L 24.085938 -19.375 L 30.355469 -37.003906 C 31.441406 -41.574219 24.699219 -42.800781 23.144531 -38.605469 L 16.355469 -19.375 L 9.238281 -19.375 L 16.214844 -34.789062 C 17.863281 -39.359375 10.984375 -40.820312 9.378906 -36.484375 L 1.367188 -18.714844 C 0.660156 -17.0625 -0.660156 -12.253906 5.089844 -12.253906 L 13.859375 -12.253906 L 10.746094 -3.722656 C 9.050781 0.847656 16.121094 2.640625 17.863281 -1.980469 L 21.589844 -12.304688 L 24.132812 -12.304688 C 28.988281 -12.304688 29.367188 -19.375 25.972656 -19.375 Z M 25.972656 -19.375 "/></g></g></g><g fill="#f6a700" fill-opacity="1"><g transform="translate(145.895308, 257.844739)"><g/></g></g><g fill="#f6a700" fill-opacity="1"><g transform="translate(163.900055, 257.844739)"><g><path d="M 33.136719 -13.527344 C 30.96875 -7.589844 28.425781 -5.988281 26.492188 -5.988281 C 25.644531 -5.988281 25.125 -6.410156 25.125 -7.023438 C 25.125 -7.351562 25.21875 -7.683594 25.359375 -8.109375 L 27.667969 -13.953125 C 28.1875 -15.226562 28.425781 -16.402344 28.425781 -17.488281 C 28.425781 -19.46875 27.71875 -20.976562 26.585938 -22.15625 C 29.507812 -24.179688 31.441406 -28.941406 31.441406 -32.289062 C 31.441406 -37.238281 27.152344 -40.019531 22.71875 -40.253906 C 22.484375 -40.253906 22.15625 -40.300781 21.730469 -40.300781 C 20.550781 -40.300781 18.761719 -40.113281 17.109375 -38.9375 C 16.875 -40.019531 15.507812 -40.914062 14 -40.914062 C 12.539062 -40.914062 10.890625 -40.160156 10.132812 -38.039062 L -1.742188 -4.335938 C -1.886719 -3.867188 -1.980469 -3.441406 -1.980469 -3.0625 C -1.980469 -1.132812 -0.234375 0 1.648438 0 C 3.253906 0 4.902344 -0.847656 5.5625 -2.6875 L 11.878906 -20.503906 C 11.972656 -19.421875 12.585938 -17.441406 15.367188 -17.441406 C 16.121094 -17.441406 17.0625 -17.628906 18.242188 -18.007812 C 19.421875 -17.960938 20.128906 -17.207031 20.128906 -16.121094 C 20.128906 -15.554688 20.035156 -14.988281 19.796875 -14.375 L 18.054688 -9.945312 C 17.628906 -8.816406 17.394531 -7.683594 17.394531 -6.695312 C 17.394531 -2.59375 20.695312 0 25.359375 0 C 30.496094 0 35.917969 -3.160156 38.9375 -12.492188 C 39.03125 -12.867188 39.125 -13.246094 39.125 -13.574219 C 39.125 -15.226562 37.757812 -16.308594 36.34375 -16.308594 C 35.070312 -16.308594 33.75 -15.507812 33.136719 -13.527344 Z M 13.011719 -23.757812 L 15.273438 -30.214844 C 16.402344 -32.335938 18.523438 -33.84375 20.597656 -33.84375 C 22.390625 -33.84375 23.617188 -32.714844 23.617188 -31.015625 C 23.617188 -29.132812 22.53125 -26.351562 20.835938 -25.40625 C 19.84375 -25.785156 18.855469 -25.972656 17.863281 -25.972656 C 15.933594 -25.972656 14.140625 -25.265625 13.011719 -23.757812 Z M 13.011719 -23.757812 "/></g></g></g><g fill="#f6a700" fill-opacity="1"><g transform="translate(195.52619, 257.844739)"><g><path d="M 23.851562 -13.292969 C 21.777344 -7.824219 16.828125 -5.609375 12.820312 -5.609375 C 9.378906 -5.609375 7.210938 -7.257812 7.210938 -9.425781 C 7.210938 -9.851562 7.257812 -10.277344 7.449219 -10.746094 L 7.824219 -11.644531 C 9.191406 -10.792969 10.890625 -10.230469 12.773438 -10.230469 C 17.0625 -10.230469 20.835938 -12.914062 22.109375 -17.15625 C 22.34375 -18.054688 22.484375 -18.949219 22.484375 -19.75 C 22.484375 -24.230469 18.949219 -27.667969 13.621094 -27.667969 C 9.425781 -27.667969 5.328125 -25.21875 3.675781 -20.503906 L 0.894531 -12.445312 C 0.519531 -11.3125 0.28125 -10.183594 0.28125 -9.097656 C 0.28125 -3.488281 5.5625 0 12.445312 0 C 18.996094 0 26.445312 -3.207031 29.554688 -12.207031 C 29.695312 -12.585938 29.742188 -12.914062 29.742188 -13.199219 C 29.742188 -14.660156 28.425781 -15.460938 27.011719 -15.460938 C 25.691406 -15.460938 24.277344 -14.753906 23.851562 -13.292969 Z M 13.480469 -22.109375 C 14.800781 -22.109375 15.648438 -21.023438 15.648438 -19.65625 C 15.648438 -19.277344 15.601562 -18.902344 15.460938 -18.523438 C 14.988281 -16.96875 13.574219 -16.402344 12.160156 -16.402344 C 11.265625 -16.402344 10.371094 -16.59375 9.710938 -16.96875 L 10.699219 -19.796875 C 11.21875 -21.257812 12.398438 -22.109375 13.480469 -22.109375 Z M 13.480469 -22.109375 "/></g></g></g><g fill="#f6a700" fill-opacity="1"><g transform="translate(217.867161, 257.844739)"><g><path d="M 26.300781 -13.574219 C 24.230469 -7.917969 21.636719 -5.609375 19.421875 -5.609375 C 18.570312 -5.609375 18.101562 -6.035156 18.101562 -6.835938 C 18.101562 -7.164062 18.195312 -7.542969 18.335938 -8.011719 L 22.011719 -18.476562 C 22.34375 -19.421875 22.53125 -20.269531 22.53125 -21.070312 C 22.53125 -24.839844 19.328125 -27.667969 15.554688 -27.667969 C 13.71875 -27.667969 12.253906 -27.246094 11.03125 -26.351562 C 10.746094 -27.199219 9.570312 -27.667969 8.296875 -27.667969 C 6.976562 -27.667969 5.703125 -27.058594 5.230469 -25.738281 L -2.640625 -3.722656 C -2.78125 -3.300781 -2.828125 -2.921875 -2.828125 -2.546875 C -2.828125 -0.800781 -1.460938 0.09375 0.046875 0.09375 C 1.695312 0.09375 3.582031 -0.941406 4.289062 -3.0625 C 5.9375 -7.636719 8.203125 -14.09375 9.804688 -18.621094 C 11.078125 -20.976562 12.726562 -22.109375 14.046875 -22.109375 C 14.894531 -22.109375 15.507812 -21.542969 15.507812 -20.644531 C 15.507812 -20.316406 15.414062 -19.890625 15.273438 -19.46875 L 11.832031 -9.757812 C 11.453125 -8.671875 11.21875 -7.636719 11.21875 -6.644531 C 11.21875 -2.308594 14.800781 0 18.808594 0 C 23.617188 0 28.753906 -3.253906 32.007812 -12.445312 C 32.148438 -12.820312 32.242188 -13.199219 32.242188 -13.527344 C 32.242188 -15.035156 30.875 -15.839844 29.460938 -15.839844 C 28.1875 -15.839844 26.773438 -15.132812 26.300781 -13.574219 Z M 26.300781 -13.574219 "/></g></g></g><g fill="#f6a700" fill-opacity="1"><g transform="translate(242.611907, 257.844739)"><g><path d="M 16.828125 -13.292969 C 14.941406 -8.109375 11.972656 -5.609375 9.238281 -5.609375 C 7.542969 -5.609375 6.503906 -6.644531 6.503906 -7.917969 C 6.503906 -8.25 6.597656 -8.625 6.695312 -8.957031 L 11.3125 -22.109375 L 14.375 -22.109375 C 16.78125 -22.109375 18.054688 -23.804688 18.054688 -25.359375 C 18.054688 -26.585938 17.253906 -27.667969 15.460938 -27.667969 L 13.339844 -27.667969 L 16.5 -36.863281 C 16.59375 -37.191406 16.640625 -37.472656 16.640625 -37.757812 C 16.640625 -39.5 15.414062 -40.914062 13.339844 -40.914062 C 11.785156 -40.914062 10.464844 -39.832031 9.898438 -38.179688 L 6.128906 -27.667969 L 4.148438 -27.667969 C 1.601562 -27.667969 0.519531 -26.066406 0.519531 -24.558594 C 0.519531 -23.238281 1.320312 -22.109375 2.59375 -22.109375 L 4.148438 -22.109375 L 0.1875 -10.746094 L 0.1875 -10.792969 C -0.1875 -9.664062 -0.378906 -8.625 -0.378906 -7.636719 C -0.378906 -2.828125 3.914062 0 8.765625 0 C 14.800781 0 19.84375 -4.476562 22.53125 -12.207031 C 22.625 -12.539062 22.71875 -12.867188 22.71875 -13.152344 C 22.71875 -14.566406 21.351562 -15.460938 19.890625 -15.460938 C 18.714844 -15.460938 17.394531 -14.800781 16.828125 -13.292969 Z M 16.828125 -13.292969 "/></g></g></g><g fill="#f6a700" fill-opacity="1"><g transform="translate(125.756523, 281.690197)"><g><path d="M 15.074219 -13.8125 L 9.53125 -5.328125 L 7.398438 -13.8125 L 4.597656 -13.8125 L -0.335938 0 L 2.625 0 L 5.917969 -9.15625 L 8.289062 -0.0585938 L 8.976562 -0.0585938 L 14.996094 -9.097656 L 14.542969 0 L 17.363281 0 L 17.976562 -13.8125 Z M 15.074219 -13.8125 "/></g></g></g><g fill="#f6a700" fill-opacity="1"><g transform="translate(144.926932, 281.690197)"><g><path d="M 5.542969 0.296875 C 9.195312 0.296875 12.15625 -2.625 12.15625 -6.175781 C 12.15625 -8.898438 10.140625 -10.933594 7.222656 -10.933594 C 3.570312 -10.933594 0.632812 -8.03125 0.632812 -4.460938 C 0.632812 -1.757812 2.625 0.296875 5.542969 0.296875 Z M 5.800781 -2.269531 C 4.339844 -2.269531 3.414062 -3.195312 3.414062 -4.597656 C 3.414062 -6.589844 4.933594 -8.367188 6.964844 -8.367188 C 8.445312 -8.367188 9.371094 -7.4375 9.371094 -6.039062 C 9.371094 -4.046875 7.855469 -2.269531 5.800781 -2.269531 Z M 5.800781 -2.269531 "/></g></g></g><g fill="#f6a700" fill-opacity="1"><g transform="translate(157.7072, 281.690197)"><g><path d="M 8.386719 -8.167969 L 8.878906 -10.65625 L 5.859375 -10.65625 L 6.414062 -13.417969 L 5.898438 -13.417969 L 0.769531 -8.761719 L 0.652344 -8.167969 L 2.625 -8.167969 C 1.816406 -4.203125 1.714844 -3.769531 1.714844 -3.175781 C 1.714844 -1.203125 3.019531 0.0195312 5.230469 0.0195312 L 6.789062 0.0195312 L 7.300781 -2.527344 L 6.058594 -2.527344 C 5.070312 -2.527344 4.539062 -2.980469 4.539062 -3.828125 C 4.539062 -4.105469 4.597656 -4.359375 5.367188 -8.167969 Z M 8.386719 -8.167969 "/></g></g></g><g fill="#f6a700" fill-opacity="1"><g transform="translate(166.128769, 281.690197)"><g><path d="M 5.542969 0.296875 C 9.195312 0.296875 12.15625 -2.625 12.15625 -6.175781 C 12.15625 -8.898438 10.140625 -10.933594 7.222656 -10.933594 C 3.570312 -10.933594 0.632812 -8.03125 0.632812 -4.460938 C 0.632812 -1.757812 2.625 0.296875 5.542969 0.296875 Z M 5.800781 -2.269531 C 4.339844 -2.269531 3.414062 -3.195312 3.414062 -4.597656 C 3.414062 -6.589844 4.933594 -8.367188 6.964844 -8.367188 C 8.445312 -8.367188 9.371094 -7.4375 9.371094 -6.039062 C 9.371094 -4.046875 7.855469 -2.269531 5.800781 -2.269531 Z M 5.800781 -2.269531 "/></g></g></g><g fill="#f6a700" fill-opacity="1"><g transform="translate(178.909038, 281.690197)"><g/></g></g><g fill="#f6a700" fill-opacity="1"><g transform="translate(183.681922, 281.690197)"><g><path d="M 12.785156 -9.984375 C 12.785156 -12.195312 11.148438 -13.8125 8.722656 -13.8125 L 3.296875 -13.8125 L 0.53125 0 L 3.394531 0 L 4.339844 -4.773438 L 6.53125 -4.773438 L 8.328125 0 L 11.367188 0 L 9.371094 -5.191406 C 11.367188 -5.980469 12.785156 -7.792969 12.785156 -9.984375 Z M 5.644531 -11.246094 L 8.167969 -11.246094 C 9.292969 -11.246094 9.886719 -10.675781 9.90625 -9.789062 C 9.90625 -8.484375 8.859375 -7.339844 7.339844 -7.339844 L 4.855469 -7.339844 Z M 5.644531 -11.246094 "/></g></g></g><g fill="#f6a700" fill-opacity="1"><g transform="translate(196.6397, 281.690197)"><g><path d="M 11.503906 -4.519531 C 11.660156 -5.070312 11.761719 -5.605469 11.761719 -6.234375 C 11.761719 -8.839844 9.847656 -10.933594 7.023438 -10.933594 C 3.296875 -10.933594 0.632812 -7.972656 0.632812 -4.421875 C 0.632812 -1.757812 2.507812 0.296875 5.25 0.296875 C 7.8125 0.296875 9.925781 -1.085938 11.167969 -3.453125 L 8.226562 -3.453125 C 7.617188 -2.644531 6.648438 -2.152344 5.566406 -2.152344 C 4.085938 -2.152344 3.234375 -2.921875 3.234375 -4.378906 C 3.234375 -4.441406 3.234375 -4.480469 3.234375 -4.519531 Z M 6.828125 -8.582031 C 8.207031 -8.582031 9.039062 -7.832031 9.175781 -6.453125 L 3.691406 -6.453125 C 4.28125 -7.675781 5.386719 -8.582031 6.828125 -8.582031 Z M 6.828125 -8.582031 "/></g></g></g><g fill="#f6a700" fill-opacity="1"><g transform="translate(208.966348, 281.690197)"><g><path d="M 8.425781 -10.933594 C 6.964844 -10.933594 5.585938 -10.339844 4.617188 -9.351562 L 4.359375 -10.65625 L 2.484375 -10.65625 L 0.355469 0 L 3.097656 0 L 4.222656 -5.644531 C 4.597656 -7.320312 5.761719 -8.386719 7.242188 -8.386719 C 8.308594 -8.386719 8.839844 -7.832031 8.839844 -6.75 C 8.839844 -6.234375 8.722656 -5.859375 7.558594 0 L 10.300781 0 C 11.542969 -6.195312 11.679688 -6.628906 11.679688 -7.519531 C 11.679688 -9.589844 10.496094 -10.933594 8.425781 -10.933594 Z M 8.425781 -10.933594 "/></g></g></g><g fill="#f6a700" fill-opacity="1"><g transform="translate(221.588837, 281.690197)"><g><path d="M 8.386719 -8.167969 L 8.878906 -10.65625 L 5.859375 -10.65625 L 6.414062 -13.417969 L 5.898438 -13.417969 L 0.769531 -8.761719 L 0.652344 -8.167969 L 2.625 -8.167969 C 1.816406 -4.203125 1.714844 -3.769531 1.714844 -3.175781 C 1.714844 -1.203125 3.019531 0.0195312 5.230469 0.0195312 L 6.789062 0.0195312 L 7.300781 -2.527344 L 6.058594 -2.527344 C 5.070312 -2.527344 4.539062 -2.980469 4.539062 -3.828125 C 4.539062 -4.105469 4.597656 -4.359375 5.367188 -8.167969 Z M 8.386719 -8.167969 "/></g></g></g><g fill="#f6a700" fill-opacity="1"><g transform="translate(230.010407, 281.690197)"><g><path d="M 11.167969 -10.65625 L 10.558594 -9.351562 C 9.769531 -10.339844 8.5625 -10.933594 7.082031 -10.933594 C 3.453125 -10.933594 0.632812 -7.992188 0.632812 -4.441406 C 0.632812 -1.738281 2.546875 0.296875 5.367188 0.296875 C 6.769531 0.296875 8.050781 -0.175781 9.078125 -0.988281 L 9.136719 0 L 11.167969 0 L 13.300781 -10.65625 Z M 5.878906 -2.289062 C 4.398438 -2.289062 3.414062 -3.214844 3.414062 -4.636719 C 3.414062 -6.609375 5.089844 -8.367188 7.003906 -8.367188 C 8.503906 -8.367188 9.492188 -7.417969 9.492188 -6 C 9.492188 -4.027344 7.8125 -2.289062 5.878906 -2.289062 Z M 5.878906 -2.289062 "/></g></g></g><g fill="#f6a700" fill-opacity="1"><g transform="translate(243.658469, 281.690197)"><g><path d="M 0.355469 0 L 3.097656 0 L 6 -14.484375 L 3.257812 -14.484375 Z M 0.355469 0 "/></g></g></g></svg>